{"title":"House M.D. S07E23.WEB-DLRip by UaTeam","uid":6419898,"size":418548341,"categoryP":"video","categoryS":"tv_shows","magnet":"?xt=urn:btih:58f2699cd967ac0e975ed0b9217fb756882058ef&amp;dn=House+M.D.+S07E23.WEB-DLRip+by+UaTeam&amp;tr=udp%3A%2F%2Ftracker.openbittorrent.com%3A80&amp;tr=udp%3A%2F%2Fopen.demonii.com%3A1337&amp;tr=udp%3A%2F%2Ftracker.coppersurfer.tk%3A6969&amp;tr=udp%3A%2F%2Fexodus.desync.com%3A6969","seeders":0,"leechers":0,"uploader":"DRAHYS","files":2,"time":1306281967,"description":"Format : AVI\nFormat/Info : Audio Video Interleave\nFile size : 399 MiB\nDuration : 43mn 59s\nOverall bit rate : 1 269 Kbps\nWriting application : AVI-Mux GUI 1.17.8.3, Feb 16 201019:42:50\nWriting library : VirtualDub build 30586/release\n\nVideo\nID : 0\nFormat : MPEG-4 Visual\nFormat profile : Advanced Simple@L5\nFormat settings, BVOP : 1\nFormat settings, QPel : No\nFormat settings, GMC : No warppoints\nFormat settings, Matrix : Default (H.263)\nMuxing mode : Packed bitstream\nCodec ID : XVID\nCodec ID/Hint : XviD\nDuration : 43mn 59s\nBit rate : 1 067 Kbps\nWidth : 720 pixels\nHeight : 400 pixels\nDisplay aspect ratio : 16:9\nFrame rate : 23.976 fps\nColor space : YUV\nChroma subsampling : 4:2:0\nBit depth : 8 bits\nScan type : Progressive\nCompression mode : Lossy\nBits/(Pixel*Frame) : 0.155\nStream size : 336 MiB (84%)\nWriting library : XviD 1.2.1 (UTC 2008-12-04)\n\nAudio\nID : 1\nFormat : AC-3\nFormat/Info : Audio Coding 3\nMode extension : CM (complete main)\nCodec ID : 2000\nDuration : 43mn 59s\nBit rate mode : Constant\nBit rate : 192 Kbps\nChannel(s) : 2 channels\nChannel positions : Front: L R\nSampling rate : 48.0 KHz\nBit depth : 16 bits\nCompression mode : Lossy\nStream size : 60.4 MiB (15%)\nAlignment : Aligned on interleaves\nInterleave, duration : 42 ms (1.00 video frame)\nInterleave, preload duration : 512 ms","torrent":{"xt":"urn:btih:58f2699cd967ac0e975ed0b9217fb756882058ef","amp;dn":"House+M.D.+S07E23.WEB-DLRip+by+UaTeam","amp;tr":["udp%3A%2F%2Ftracker.openbittorrent.com%3A80","udp%3A%2F%2Fopen.demonii.com%3A1337","udp%3A%2F%2Ftracker.coppersurfer.tk%3A6969","udp%3A%2F%2Fexodus.desync.com%3A6969"],"infoHash":"58f2699cd967ac0e975ed0b9217fb756882058ef","infoHashBuffer":{"type":"Buffer","data":[88,242,105,156,217,103,172,14,151,94,208,185,33,127,183,86,136,32,88,239]},"announce":[],"urlList":[]}}